<svg width="31" height="30" viewBox="0 0 31 30" fill="none" xmlns="http://www.w3.org/2000/svg">
<path d="M15.5 3.75C22.75 3.75 28.6263 8.33 28.6263 13.9813C28.6263 19.6313 22.75 24.2113 15.5013 24.2113C14.7795 24.21 14.0586 24.1641 13.3425 24.0738L7.8325 27.6775C7.20625 28.0088 6.985 27.9725 7.2425 27.1613L8.3575 22.5638C4.7575 20.7388 2.37625 17.5763 2.37625 13.9813C2.37625 8.33125 8.25125 3.75 15.5013 3.75M22.8863 13.825L24.7237 12.045C24.8298 11.9349 24.8889 11.7879 24.8887 11.6351C24.8886 11.4822 24.8291 11.3354 24.7228 11.2255C24.6165 11.1157 24.4717 11.0513 24.3189 11.0461C24.1661 11.0409 24.0173 11.0952 23.9038 11.1975L21.4938 13.53V11.6025C21.4938 11.446 21.4316 11.296 21.3209 11.1853C21.2103 11.0747 21.0602 11.0125 20.9038 11.0125C20.7473 11.0125 20.5972 11.0747 20.4866 11.1853C20.3759 11.296 20.3138 11.446 20.3138 11.6025V14.7987C20.293 14.8901 20.293 14.9849 20.3138 15.0763V16.875C20.3138 17.0315 20.3759 17.1815 20.4866 17.2922C20.5972 17.4028 20.7473 17.465 20.9038 17.465C21.0602 17.465 21.2103 17.4028 21.3209 17.2922C21.4316 17.1815 21.4938 17.0315 21.4938 16.875V15.1713L22.0275 14.655L23.8125 17.1962C23.8571 17.2597 23.9137 17.3137 23.9791 17.3553C24.0446 17.3969 24.1176 17.4251 24.194 17.4385C24.2704 17.4518 24.3486 17.45 24.4243 17.4331C24.5 17.4162 24.5716 17.3846 24.635 17.34C24.6984 17.2954 24.7525 17.2388 24.7941 17.1734C24.8356 17.1079 24.8639 17.0349 24.8772 16.9585C24.8906 16.8821 24.8887 16.8039 24.8718 16.7282C24.855 16.6525 24.8233 16.5809 24.7788 16.5175L22.8863 13.825ZM19.1888 16.23H17.3637V11.6213C17.3568 11.4696 17.2916 11.3265 17.1819 11.2217C17.0721 11.1169 16.9262 11.0584 16.7744 11.0584C16.6226 11.0584 16.4767 11.1169 16.3669 11.2217C16.2571 11.3265 16.192 11.4696 16.185 11.6213V16.82C16.185 17.145 16.4475 17.41 16.7737 17.41H19.1888C19.3452 17.41 19.4953 17.3478 19.6059 17.2372C19.7166 17.1265 19.7788 16.9765 19.7788 16.82C19.7788 16.6635 19.7166 16.5135 19.6059 16.4028C19.4953 16.2922 19.3452 16.23 19.1888 16.23ZM11.8675 14.8662L12.7375 12.7313L13.535 14.865L11.8675 14.8662ZM15.0212 15.475L15.0238 15.455C15.0233 15.3064 14.9666 15.1635 14.865 15.055L13.5575 11.555C13.5027 11.3882 13.3983 11.2421 13.2582 11.1362C13.1182 11.0304 12.9492 10.9698 12.7738 10.9625C12.5972 10.9624 12.4248 11.0157 12.2791 11.1155C12.1334 11.2152 12.0213 11.3566 11.9575 11.5212L9.88 16.615C9.82082 16.7599 9.82162 16.9223 9.88222 17.0666C9.94282 17.2109 10.0583 17.3252 10.2031 17.3844C10.348 17.4436 10.5104 17.4428 10.6547 17.3822C10.799 17.3216 10.9133 17.2061 10.9725 17.0613L11.3875 16.045H13.975L14.3475 17.045C14.3729 17.1197 14.4131 17.1886 14.4656 17.2476C14.5181 17.3065 14.5819 17.3543 14.6532 17.3882C14.7246 17.422 14.802 17.4412 14.8809 17.4446C14.9597 17.4479 15.0385 17.4355 15.1124 17.4078C15.1864 17.3802 15.2541 17.3381 15.3114 17.2838C15.3688 17.2296 15.4147 17.1644 15.4464 17.0921C15.4781 17.0198 15.495 16.9418 15.4961 16.8629C15.4971 16.784 15.4823 16.7056 15.4525 16.6325L15.0212 15.475ZM10.8675 11.6275C10.8678 11.55 10.8528 11.4733 10.8234 11.4016C10.7939 11.33 10.7506 11.2648 10.6959 11.21C10.6412 11.1552 10.5761 11.1117 10.5045 11.0821C10.433 11.0525 10.3562 11.0373 10.2788 11.0375H6.2225C6.06602 11.0375 5.91595 11.0997 5.80531 11.2103C5.69466 11.321 5.6325 11.471 5.6325 11.6275C5.6325 11.784 5.69466 11.934 5.80531 12.0447C5.91595 12.1553 6.06602 12.2175 6.2225 12.2175H7.6725V16.8875C7.6725 17.044 7.73466 17.194 7.84531 17.3047C7.95595 17.4153 8.10602 17.4775 8.2625 17.4775C8.41898 17.4775 8.56905 17.4153 8.67969 17.3047C8.79034 17.194 8.8525 17.044 8.8525 16.8875V12.2175H10.2775C10.3551 12.2178 10.4319 12.2028 10.5037 12.1733C10.5754 12.1437 10.6406 12.1003 10.6954 12.0454C10.7503 11.9906 10.7937 11.9254 10.8233 11.8537C10.8528 11.7819 10.8678 11.7051 10.8675 11.6275Z" fill="white"/>
</svg>
