<svg width="31" height="30" viewBox="0 0 31 30" fill="none" xmlns="http://www.w3.org/2000/svg">
<path fill-rule="evenodd" clip-rule="evenodd" d="M28.675 8.025C28.5189 7.44035 28.2122 6.90683 27.7856 6.47762C27.359 6.04841 26.8274 5.73849 26.2437 5.57875C24.1 5 15.5 5 15.5 5C15.5 5 6.9 5 4.75625 5.57875C4.17257 5.73849 3.64095 6.04841 3.21437 6.47762C2.78779 6.90683 2.48115 7.44035 2.325 8.025C1.75 10.185 1.75 14.6875 1.75 14.6875C1.75 14.6875 1.75 19.19 2.325 21.35C2.48096 21.9349 2.78751 22.4687 3.21411 22.8981C3.6407 23.3275 4.17242 23.6377 4.75625 23.7975C6.90125 24.375 15.5 24.375 15.5 24.375C15.5 24.375 24.1 24.375 26.2437 23.7975C26.8276 23.6377 27.3593 23.3275 27.7859 22.8981C28.2125 22.4687 28.519 21.9349 28.675 21.35C29.25 19.1925 29.25 14.6875 29.25 14.6875C29.25 14.6875 29.25 10.185 28.675 8.025ZM12.6875 10.5988V18.7762L19.875 14.6875L12.6875 10.5988Z" fill="white"/>
</svg>
