<svg width="31" height="30" viewBox="0 0 31 30" fill="none" xmlns="http://www.w3.org/2000/svg">
<path d="M26.625 2.5H4.375C4.01033 2.5 3.66059 2.64487 3.40273 2.90273C3.14487 3.16059 3 3.51033 3 3.875V26.125C3 26.4897 3.14487 26.8394 3.40273 27.0973C3.66059 27.3551 4.01033 27.5 4.375 27.5H16.35V17.8125H13.1V14.0625H16.35V11.25C16.2827 10.5897 16.3606 9.92266 16.5784 9.29567C16.7962 8.66868 17.1485 8.09693 17.6106 7.62051C18.0727 7.1441 18.6335 6.77455 19.2535 6.5378C19.8736 6.30104 20.538 6.20281 21.2 6.25C22.1729 6.24328 23.1454 6.29337 24.1125 6.4V9.775H22.125C20.55 9.775 20.25 10.525 20.25 11.6125V14.025H24L23.5125 17.775H20.25V27.5H26.625C26.8056 27.5 26.9844 27.4644 27.1512 27.3953C27.318 27.3262 27.4696 27.225 27.5973 27.0973C27.725 26.9696 27.8262 26.818 27.8953 26.6512C27.9644 26.4844 28 26.3056 28 26.125V3.875C28 3.69443 27.9644 3.51563 27.8953 3.34881C27.8262 3.18199 27.725 3.03041 27.5973 2.90273C27.4696 2.77505 27.318 2.67377 27.1512 2.60467C26.9844 2.53557 26.8056 2.5 26.625 2.5Z" fill="white"/>
</svg>
